<?xml version="1.0" encoding="UTF-8"?>
<svg version="1.1" xmlns="http://www.w3.org/2000/svg" width="361" height="181">
<path d="M0 0 C3.30624567 1.65312283 3.87855021 5.3184675 5.1328125 8.625 C5.44177963 9.42265274 5.75074677 10.22030548 6.06907654 11.04212952 C7.09404219 13.692359 8.10932217 16.34619879 9.125 19 C9.83769165 20.84591869 10.55116248 22.69153672 11.26538086 24.53686523 C12.75845869 28.39686709 14.24810913 32.25816354 15.73486328 36.12060547 C18.98733196 44.56744818 22.26045616 53.00621541 25.54364014 61.44116211 C26.53438187 63.99015726 27.5205816 66.54087419 28.50634766 69.09179688 C31.47153894 76.73907084 34.50726812 84.34727849 37.765625 91.875 C38.18340965 92.84851158 38.18340965 92.84851158 38.6096344 93.84169006 C40.69927777 98.59749129 43.04492133 103.51147216 47 107 C49.09448731 107.72132662 49.09448731 107.72132662 51 108 C51 109.32 51 110.64 51 112 C38.79 112 26.58 112 14 112 C14 111.01 14 110.02 14 109 C18.95 108.01 18.95 108.01 24 107 C25.27454009 99.1485514 24.57734589 94.03788171 21.6875 86.6875 C21.36587891 85.82060547 21.04425781 84.95371094 20.71289062 84.06054688 C19.20362704 80.01621632 17.62452055 75.99945414 16 72 C15.90203125 72.88300781 15.8040625 73.76601562 15.703125 74.67578125 C13.98982277 88.42650864 10.36441906 101.80907295 -1.046875 110.71484375 C-9.50349266 116.27929817 -18.01699453 117.09029411 -28 116 C-33.5568146 114.51570895 -36.28294902 110.68405153 -39.0546875 105.90234375 C-41.03675378 101.91364012 -41.10604887 98.71093617 -41.0625 94.3125 C-41.05347656 93.13300781 -41.04445313 91.95351562 -41.03515625 90.73828125 C-41.02355469 89.83464844 -41.01195312 88.93101563 -41 88 C-37.04 88 -33.08 88 -29 88 C-28.7525 89.69125 -28.505 91.3825 -28.25 93.125 C-27.34095895 98.09911899 -26.32051511 101.19117384 -23 105 C-18.71130694 107.57321584 -14.88020272 107.72214838 -10 107 C-3.65651513 104.9764848 0.87342559 102.17808106 4.04296875 96.2421875 C8.09080357 86.75868877 9.17978629 77.3533824 9.1875 67.125 C9.20586914 65.85462891 9.20586914 65.85462891 9.22460938 64.55859375 C9.24981909 53.58396378 5.8817635 44.57786645 1.875 34.4375 C1.40707031 33.23802734 0.93914062 32.03855469 0.45703125 30.80273438 C-0.68951857 27.86616291 -1.84197752 24.93206187 -3 22 C-4.76239535 24.64359302 -5.79461748 26.80718132 -6.91015625 29.74609375 C-7.26013672 30.66583984 -7.61011719 31.58558594 -7.97070312 32.53320312 C-8.33099609 33.49162109 -8.69128906 34.45003906 -9.0625 35.4375 C-9.42666016 36.39205078 -9.79082031 37.34660156 -10.16601562 38.33007812 C-12.35186004 44.08055527 -12.35186004 44.08055527 -14 50 C-11.02068819 48.65996019 -8.95954862 47.14378669 -6.625 44.875 C-3.95545304 42.49950681 -3.2735659 42.02984355 0.4375 41.625 C1.7059375 41.810625 1.7059375 41.810625 3 42 C2.67 42.99 2.34 43.98 2 45 C1.319375 45.2475 0.63875 45.495 -0.0625 45.75 C-3.1022623 47.04351587 -4.573076 48.36928515 -6.9375 50.625 C-9.77291354 53.22368072 -10.56430754 53.94553844 -14.5 54.4375 C-15.325 54.293125 -16.15 54.14875 -17 54 C-17.89753616 45.71098962 -14.62003483 38.6465783 -11.6875 31.0625 C-10.93285425 29.07487102 -10.18191176 27.08586882 -9.43110657 25.0967865 C-8.94682422 23.81533897 -8.46083677 22.53453441 -7.97306824 21.25440979 C-6.4120941 17.14733258 -4.95319647 13.02254603 -3.62109375 8.8359375 C-2.59669757 5.80784817 -1.30346375 2.917276 0 0 Z " fill="#000000" transform="translate(310,1)"/>
<path d="M0 0 C12.90222522 9.4285492 19.35360099 21.9542789 22.5234375 37.45703125 C22.79962223 41.20525265 22.72688347 44.69328078 22.5234375 48.45703125 C18.8934375 48.45703125 15.2634375 48.45703125 11.5234375 48.45703125 C11.36488281 47.45285156 11.20632812 46.44867188 11.04296875 45.4140625 C8.6113973 30.83001337 4.62726994 14.50686261 -7.5390625 4.89453125 C-14.78785842 -0.27004428 -22.89676288 -0.32295053 -31.4765625 0.45703125 C-41.04780349 3.01951979 -46.79478648 9.0615731 -51.8046875 17.296875 C-61.55643738 35.72950504 -62.70681493 55.48211441 -56.90380859 75.33007812 C-54.18654894 83.90271938 -50.59278163 91.43996547 -42.5390625 96.01953125 C-37.84611286 97.98549664 -33.45770498 98.59241545 -28.55859375 96.7265625 C-23.60519849 94.13896796 -20.64613521 90.8546553 -18.2265625 85.89453125 C-17.28050527 83.2448912 -17.28050527 83.2448912 -17.4765625 79.45703125 C-14.8365625 79.45703125 -12.1965625 79.45703125 -9.4765625 79.45703125 C-9.8418086 86.39670706 -13.53984367 92.70316472 -18.546875 97.3984375 C-25.82863403 102.9739541 -32.42367048 103.28002143 -41.4765625 102.45703125 C-52.85873036 99.37214463 -59.8058367 93.52949872 -65.8359375 83.6015625 C-73.75955129 68.41463607 -76.64004314 49.54094937 -71.9909668 32.82739258 C-67.25740426 18.05556875 -60.07664728 6.30622304 -46.4765625 -1.54296875 C-32.80295592 -8.50258887 -13.04904762 -8.12992714 0 0 Z " fill="#000000" transform="translate(74.4765625,8.54296875)"/>
<path d="M0 0 C2.54049551 -0.00712621 5.0090382 0.10686236 7.53515625 0.3671875 C7.14804679 5.69191757 5.21351607 8.52940899 1.59765625 12.2421875 C1.10040039 12.76321045 0.60314453 13.2842334 0.09082031 13.82104492 C-8.75642654 22.92842221 -17.88953468 28.42838896 -29.46484375 33.3671875 C-28.62026611 33.52936768 -27.77568848 33.69154785 -26.90551758 33.85864258 C-16.79957789 35.89792032 -7.26232547 38.9324806 2.47460938 42.31445312 C9.82189869 44.77702835 16.3294692 46.90355982 24.0234375 44.6328125 C24.62542969 44.29765625 25.22742188 43.9625 25.84765625 43.6171875 C26.49605469 43.25625 27.14445312 42.8953125 27.8125 42.5234375 C30.00170249 41.05404082 31.74575018 39.2942402 33.53515625 37.3671875 C34.19515625 37.3671875 34.85515625 37.3671875 35.53515625 37.3671875 C35.99374553 43.09955348 35.19160686 45.92015297 31.53515625 50.3671875 C24.7343403 56.64486376 17.76401607 57.05131461 8.90234375 56.80859375 C-0.54637041 56.15589998 -7.79864955 50.25960571 -15.23828125 44.91015625 C-21.2585626 40.7382069 -28.13346159 38.83017543 -35.46484375 39.3671875 C-37.17119223 40.79169332 -37.17119223 40.79169332 -38.46484375 42.3671875 C-39.12484375 42.3671875 -39.78484375 42.3671875 -40.46484375 42.3671875 C-40.85009682 38.43760619 -41.02051721 36.16100673 -38.71484375 32.8671875 C-36.00317102 30.50119543 -32.90605939 28.87281172 -29.77734375 27.1171875 C-19.8870788 21.51594408 -9.95514897 13.10708724 -4.65234375 2.8671875 C-2.46484375 0.3671875 -2.46484375 0.3671875 0 0 Z " fill="#000000" transform="translate(83.46484375,88.6328125)"/>
<path d="M0 0 C10.56 0 21.12 0 32 0 C32 1.32 32 2.64 32 4 C31.236875 4.20625 30.47375 4.4125 29.6875 4.625 C26.00283382 6.51017805 25.49054768 8.14810678 24 12 C23.55306733 15.25812304 23.51193012 18.48797793 23.48828125 21.7734375 C23.47033005 22.6971817 23.45237885 23.6209259 23.43388367 24.57266235 C23.37994576 27.50672926 23.345938 30.44063501 23.3125 33.375 C23.27931234 35.37111609 23.24482135 37.36721097 23.20898438 39.36328125 C23.12422874 44.24207093 23.05733883 49.12081419 23 54 C18.71 54 14.42 54 10 54 C9.98541748 52.82493896 9.97083496 51.64987793 9.95581055 50.43920898 C9.89760489 46.05739728 9.82037392 41.67608752 9.73754883 37.29467773 C9.70440393 35.40250833 9.67633983 33.51024254 9.65356445 31.61791992 C9.61982579 28.88939546 9.56750135 26.161746 9.51171875 23.43359375 C9.50532883 22.59477158 9.4989389 21.7559494 9.49235535 20.89170837 C9.34097907 14.77138553 8.51377302 9.51377302 4 5 C1.93125966 4.3574765 1.93125966 4.3574765 0 4 C0 2.68 0 1.36 0 0 Z " fill="#000000" transform="translate(201,3)"/>
<path d="M0 0 C9.9 0 19.8 0 30 0 C30 1.32 30 2.64 30 4 C29.21625 4.2475 28.4325 4.495 27.625 4.75 C24.95803866 5.75978957 24.95803866 5.75978957 23.75 7.75 C21.88356417 13.3493075 21.80553947 19.05937206 21.68359375 24.8984375 C21.66281265 25.73339752 21.64203156 26.56835754 21.62062073 27.42861938 C21.55560531 30.0773349 21.49646509 32.72614359 21.4375 35.375 C21.39426904 37.17839478 21.35065334 38.98178038 21.30664062 40.78515625 C21.19997361 45.19001039 21.09857305 49.5949576 21 54 C17.04 54 13.08 54 9 54 C8.98541748 52.75911621 8.97083496 51.51823242 8.95581055 50.23974609 C8.89769277 45.62129379 8.82046053 41.00332216 8.73754883 36.38525391 C8.70436287 34.38923971 8.67631132 32.39313311 8.65356445 30.39697266 C8.61990207 27.5220616 8.56758023 24.64799257 8.51171875 21.7734375 C8.50532883 20.88570648 8.4989389 19.99797546 8.49235535 19.08334351 C8.37307532 14.01896437 7.87747871 10.35336206 5 6 C2.44278263 4.57442644 2.44278263 4.57442644 0 4 C0 2.68 0 1.36 0 0 Z " fill="#000000" transform="translate(139,3)"/>
<path d="M0 0 C3.96 0 7.92 0 12 0 C12.53625 1.835625 13.0725 3.67125 13.625 5.5625 C15.97662879 12.58426484 18.74356245 17.04613747 25.125 20.875 C32.53634889 23.77509304 39.76377741 24.09434551 47.3125 21.375 C54.01874086 18.3897768 57.12571023 13.70667614 60 7 C60.75019568 4.67908212 61.38568552 2.36274801 62 0 C65.96 0 69.92 0 74 0 C72.59350034 8.86094783 69.36352526 15.55006047 62.3125 21.3125 C51.41338819 28.62610961 39.78309257 29.324843 27 28 C17.35078171 25.90327408 9.7204924 21.05607805 4 13 C1.80423325 8.6841826 0.58550811 4.80116648 0 0 Z " fill="#000000" transform="translate(148,89)"/>
<path d="M0 0 C4.05795258 2.09292683 6.77072813 3.95428439 9 8 C9.80564672 14.45412541 9.8972956 19.59226926 6 25 C1.52682615 28.92766485 -0.89115166 30.16238449 -6.8125 30.25 C-7.85019531 30.27578125 -8.88789063 30.3015625 -9.95703125 30.328125 C-13.48352565 29.94786116 -15.21292447 29.1766634 -18 27 C-22.06953696 21.73092703 -21.62315903 16.37872509 -21 10 C-19.75026884 6.11194752 -18.46578617 4.45384294 -15.5625 1.625 C-10.46206568 -0.7015139 -5.52460923 -0.82534539 0 0 Z M-12.875 6 C-14.66650765 9.18490249 -15.1226269 12.40294429 -15 16 C-13.67671811 19.506697 -12.21842232 22.93101422 -9 25 C-5.5 25.58333333 -5.5 25.58333333 -2 25 C0.63050244 22.80791463 1.00005685 20.99978476 1.875 17.6875 C2.0312726 13.07745843 1.20631884 11.01865218 -1 7 C-4.82423551 4.45050966 -8.64570972 3.74437852 -12.875 6 Z " fill="#000000" transform="translate(166,151)"/>
<path d="M0 0 C2.76300384 -0.46473652 4.32012647 -0.64131584 7 0 C10.19287212 2.30517113 12.77283167 5.11347913 15.4375 8 C16.16904297 8.763125 16.90058594 9.52625 17.65429688 10.3125 C19.45245205 12.19292371 21.22846167 14.09447978 23 16 C23 12.37 23 8.74 23 5 C22.34 4.67 21.68 4.34 21 4 C21 2.68 21 1.36 21 0 C23.97 0 26.94 0 30 0 C29.83701416 0.70213623 29.67402832 1.40427246 29.50610352 2.12768555 C28.97580448 5.13731803 28.88668043 7.90268462 28.90234375 10.95703125 C28.90717773 12.62475586 28.90717773 12.62475586 28.91210938 14.32617188 C28.92048828 15.47666016 28.92886719 16.62714844 28.9375 17.8125 C28.94201172 18.98232422 28.94652344 20.15214844 28.95117188 21.35742188 C28.9629307 24.23833358 28.97936574 27.11914044 29 30 C26.5871582 30.12963867 26.5871582 30.12963867 24 30 C22.60546875 27.92578125 22.60546875 27.92578125 21 25 C18.88431919 22.61441458 16.5984512 20.40905821 14.3125 18.1875 C13.40274414 17.2912793 13.40274414 17.2912793 12.47460938 16.37695312 C10.98759688 14.91335815 9.49441189 13.45603898 8 12 C7.97292861 14.24993359 7.95357171 16.49996095 7.9375 18.75 C7.92589844 20.00296875 7.91429687 21.2559375 7.90234375 22.546875 C7.87978606 26.12834918 7.87978606 26.12834918 9 30 C6.03 30 3.06 30 0 30 C0.33 28.68 0.66 27.36 1 26 C1.08996961 24.3990502 1.13062559 22.7948806 1.1328125 21.19140625 C1.13410156 20.27939453 1.13539063 19.36738281 1.13671875 18.42773438 C1.13285156 17.48220703 1.12898437 16.53667969 1.125 15.5625 C1.12886719 14.62083984 1.13273438 13.67917969 1.13671875 12.70898438 C1.13542969 11.79568359 1.13414062 10.88238281 1.1328125 9.94140625 C1.13168457 9.11326416 1.13055664 8.28512207 1.12939453 7.43188477 C0.99327805 4.87366544 0.56029446 2.49684349 0 0 Z " fill="#000000" transform="translate(231,151)"/>
<path d="M0 0 C0.99 0.33 1.98 0.66 3 1 C2.505 1.7425 2.505 1.7425 2 2.5 C-0.29825755 8.24564388 0.76182557 13.0247144 2.875 18.625 C7.04027971 28.01776542 13.57297523 36.05898787 20 44 C9.20410462 45.29707966 9.20410462 45.29707966 4 44 C0.12512359 40.94265532 -1.82785719 37.37858262 -4 33 C-4.44859375 32.26007812 -4.8971875 31.52015625 -5.359375 30.7578125 C-8.91295708 24.30781763 -8.99474105 17.17393754 -8 10 C-6.20340204 5.42621817 -4.07700661 2.71800441 0 0 Z " fill="#000000" transform="translate(39,13)"/>
<path d="M0 0 C2.64 0 5.28 0 8 0 C12.19916856 9.75636611 16.41903493 19.67613971 19 30 C15.37 30 11.74 30 8 30 C8 29.01 8 28.02 8 27 C8.66 27 9.32 27 10 27 C9.505 24.525 9.505 24.525 9 22 C6.03 22.33 3.06 22.66 0 23 C-0.33 25.31 -0.66 27.62 -1 30 C-3.64 30 -6.28 30 -9 30 C-8.26265199 26.55904263 -7.00644105 23.48173482 -5.625 20.25 C-5.18027344 19.19039062 -4.73554688 18.13078125 -4.27734375 17.0390625 C-3.52171543 15.24126791 -2.76453653 13.44412153 -2.00390625 11.6484375 C-0.37598907 7.6136954 0.32625738 4.35009836 0 0 Z M3 12 C2.67 13.98 2.34 15.96 2 18 C3.65 18 5.3 18 7 18 C6.34 16.02 5.68 14.04 5 12 C4.34 12 3.68 12 3 12 Z " fill="#000000" transform="translate(198,151)"/>
<path d="M0 0 C3.3 0 6.6 0 10 0 C9.67 1.32 9.34 2.64 9 4 C8.92088457 5.65989282 8.89221115 7.3226287 8.90234375 8.984375 C8.90556641 9.91894531 8.90878906 10.85351562 8.91210938 11.81640625 C8.92048828 12.78449219 8.92886719 13.75257813 8.9375 14.75 C8.94201172 15.73355469 8.94652344 16.71710938 8.95117188 17.73046875 C8.96293517 20.15370791 8.97937316 22.57682273 9 25 C11.92695663 25.1667772 11.92695663 25.1667772 15 25 C16.77409808 23.07977297 16.77409808 23.07977297 18 21 C18.66 21 19.32 21 20 21 C20.09765625 27.15234375 20.09765625 27.15234375 20 29 C19 30 19 30 17.14233398 30.11352539 C16.35157471 30.10828857 15.56081543 30.10305176 14.74609375 30.09765625 C13.89208984 30.09443359 13.03808594 30.09121094 12.15820312 30.08789062 C11.26037109 30.07951172 10.36253906 30.07113281 9.4375 30.0625 C8.53580078 30.05798828 7.63410156 30.05347656 6.70507812 30.04882812 C4.46998686 30.03700225 2.23502563 30.0205222 0 30 C0 28.68 0 27.36 0 26 C0.66 26 1.32 26 2 26 C1.86089513 22.41637224 1.71254587 18.83318502 1.5625 15.25 C1.52318359 14.23421875 1.48386719 13.2184375 1.44335938 12.171875 C1.40146484 11.1921875 1.35957031 10.2125 1.31640625 9.203125 C1.27974854 8.30239258 1.24309082 7.40166016 1.20532227 6.47363281 C1.04349075 3.71650899 1.04349075 3.71650899 0 0 Z " fill="#000000" transform="translate(111,151)"/>
<path d="M0 0 C4.29425875 1.07356469 4.74740471 1.5084773 7 5 C7.33 3.35 7.66 1.7 8 0 C8.99 0 9.98 0 11 0 C11 4.29 11 8.58 11 13 C6.70574125 11.92643531 6.25259529 11.4915227 4 8 C3.67 9.65 3.34 11.3 3 13 C2.01 13 1.02 13 0 13 C0 8.71 0 4.42 0 0 Z " fill="#000000" transform="translate(184,65)"/>
<path d="M0 0 C1.32 0 2.64 0 4 0 C4.33 0.66 4.66 1.32 5 2 C5.66 1.34 6.32 0.68 7 0 C9.125 0.375 9.125 0.375 11 1 C9.02 3.97 9.02 3.97 7 7 C8.98 9.97 8.98 9.97 11 13 C6.125 12.125 6.125 12.125 5 11 C4.67 11.66 4.34 12.32 4 13 C2.68 13 1.36 13 0 13 C0 8.71 0 4.42 0 0 Z " fill="#000000" transform="translate(107,65)"/>
<path d="M0 0 C1.32229189 2.64458379 1.09677194 4.67761301 1.0625 7.625 C1.05347656 8.62789062 1.04445313 9.63078125 1.03515625 10.6640625 C1.02355469 11.43492188 1.01195313 12.20578125 1 13 C-6.28358209 12.40298507 -6.28358209 12.40298507 -9 10.875 C-10.61516686 7.84656214 -10.3593084 5.35354507 -10 2 C-7.70989947 -2.31077747 -4.20045325 -1.01122023 0 0 Z M-6 2 C-7.29633621 3.06645115 -7.29633621 3.06645115 -7.0625 5.5625 C-7.041875 6.366875 -7.02125 7.17125 -7 8 C-5.35 7.67 -3.7 7.34 -2 7 C-2.33 5.35 -2.66 3.7 -3 2 C-3.99 2 -4.98 2 -6 2 Z " fill="#000000" transform="translate(65,66)"/>
<path d="M0 0 C6.57692308 0.57692308 6.57692308 0.57692308 8 2 C8.16796875 3.99609375 8.16796875 3.99609375 8.1875 6.4375 C8.20167969 7.24058594 8.21585938 8.04367188 8.23046875 8.87109375 C8 11 8 11 6 13 C3.0625 13.375 3.0625 13.375 0 13 C-1.9375 11.4375 -1.9375 11.4375 -3 9 C-2.67272727 2.67272727 -2.67272727 2.67272727 0 0 Z M2 3 C1.34 3.66 0.68 4.32 0 5 C0.32041397 7.60280568 0.32041397 7.60280568 1 10 C2.32 9.67 3.64 9.34 5 9 C4.01 9 3.02 9 2 9 C2 8.01 2 7.02 2 6 C3.32 5.67 4.64 5.34 6 5 C4.68 4.34 3.36 3.68 2 3 Z " fill="#000000" transform="translate(159,65)"/>
<path d="M0 0 C3.375 -0.125 3.375 -0.125 7 0 C9 2 9 2 9.0625 5.9375 C9.03285156 6.62714844 9.00320313 7.31679687 8.97265625 8.02734375 C8.90332679 10.21506135 8.90332679 10.21506135 10 13 C8.68 13 7.36 13 6 13 C5.67 11.68 5.34 10.36 5 9 C4.34 9 3.68 9 3 9 C3 10.32 3 11.64 3 13 C2.01 13 1.02 13 0 13 C0 8.71 0 4.42 0 0 Z M3 3 C3 3.99 3 4.98 3 6 C3.99 5.67 4.98 5.34 6 5 C6 4.34 6 3.68 6 3 C5.01 3 4.02 3 3 3 Z " fill="#000000" transform="translate(275,65)"/>
<path d="M0 0 C0.66 0.66 1.32 1.32 2 2 C1.67751743 3.33599921 1.34227417 4.66893378 1 6 C1.185625 6.86625 1.37125 7.7325 1.5625 8.625 C1.706875 9.40875 1.85125 10.1925 2 11 C0 13 0 13 -3 13.25 C-6 13 -6 13 -8 11 C-8 10.01 -8 9.02 -8 8 C-7.34 7.67 -6.68 7.34 -6 7 C-6.33 6.67 -6.66 6.34 -7 6 C-7.04063832 4.33382885 -7.042721 2.66611905 -7 1 C-4.48718205 -0.25640898 -2.78302919 -0.20872719 0 0 Z M-4 3 C-4 3.66 -4 4.32 -4 5 C-3.01 4.67 -2.02 4.34 -1 4 C-1.99 3.67 -2.98 3.34 -4 3 Z M-5 8 C-4.67 8.66 -4.34 9.32 -4 10 C-3.01 9.67 -2.02 9.34 -1 9 C-2.32 8.67 -3.64 8.34 -5 8 Z " fill="#000000" transform="translate(241,65)"/>
<path d="M0 0 C1.32 0 2.64 0 4 0 C4 3.3 4 6.6 4 10 C4.99 9.67 5.98 9.34 7 9 C7.33 6.03 7.66 3.06 8 0 C8.99 0 9.98 0 11 0 C11.05416188 1.60379341 11.09286638 3.20811406 11.125 4.8125 C11.14820312 5.70582031 11.17140625 6.59914063 11.1953125 7.51953125 C11 10 11 10 9 13 C6.0625 13.4375 6.0625 13.4375 3 13 C1.125 11.5625 1.125 11.5625 0 9 C-0.23374934 5.9820363 -0.17422493 3.01989876 0 0 Z " fill="#000000" transform="translate(70,65)"/>
<path d="M0 0 C6 0 6 0 8.375 1.0625 C10 3 10 3 10.4375 6.5 C10 10 10 10 8.9375 11.9375 C5.98831309 13.55479605 3.29132441 13.18630138 0 13 C0 8.71 0 4.42 0 0 Z M3 3 C3 5.31 3 7.62 3 10 C4.32 9.67 5.64 9.34 7 9 C6.67 7.02 6.34 5.04 6 3 C5.01 3 4.02 3 3 3 Z " fill="#000000" transform="translate(301,65)"/>
<path d="M0 0 C6 0 6 0 7.9375 1.125 C9.5172952 3.91287388 8.62577015 5.93372628 8 9 C8.3577614 11.27650745 8.3577614 11.27650745 9 13 C7.0625 12.625 7.0625 12.625 5 12 C4.67 11.34 4.34 10.68 4 10 C3.67 10.99 3.34 11.98 3 13 C2.01 13 1.02 13 0 13 C0 8.71 0 4.42 0 0 Z M3 3 C3 3.99 3 4.98 3 6 C3.99 5.67 4.98 5.34 6 5 C5.67 4.34 5.34 3.68 5 3 C4.34 3 3.68 3 3 3 Z " fill="#000000" transform="translate(144,65)"/>
<path d="M0 0 C2.5 0.25 2.5 0.25 4.5 2.25 C4.17751743 3.58599921 3.84227417 4.91893378 3.5 6.25 C3.685625 7.11625 3.87125 7.9825 4.0625 8.875 C4.206875 9.65875 4.35125 10.4425 4.5 11.25 C2.5 13.25 2.5 13.25 -0.625 13.375 C-1.57375 13.33375 -2.5225 13.2925 -3.5 13.25 C-4.16 11.6 -4.82 9.95 -5.5 8.25 C-4.84 7.92 -4.18 7.59 -3.5 7.25 C-3.809375 6.074375 -3.809375 6.074375 -4.125 4.875 C-4.24875 4.00875 -4.3725 3.1425 -4.5 2.25 C-2.5 0.25 -2.5 0.25 0 0 Z M-1.5 3.25 C-1.5 3.91 -1.5 4.57 -1.5 5.25 C-0.51 5.25 0.48 5.25 1.5 5.25 C1.5 4.59 1.5 3.93 1.5 3.25 C0.51 3.25 -0.48 3.25 -1.5 3.25 Z M-1.5 8.25 C-1.5 8.91 -1.5 9.57 -1.5 10.25 C-0.51 9.92 0.48 9.59 1.5 9.25 C0.51 8.92 -0.48 8.59 -1.5 8.25 Z " fill="#000000" transform="translate(251.5,64.75)"/>
<path d="M0 0 C1.8125 2.5 1.8125 2.5 3 5 C1.68 5 0.36 5 -1 5 C-1 4.34 -1 3.68 -1 3 C-1.99 3.33 -2.98 3.66 -4 4 C-4.33 4.99 -4.66 5.98 -5 7 C-4.67 7.66 -4.34 8.32 -4 9 C-3.01 9.33 -2.02 9.66 -1 10 C-1 9.34 -1 8.68 -1 8 C0.32 8.33 1.64 8.66 3 9 C1.875 11 1.875 11 0 13 C-3 13.5625 -3 13.5625 -6 13 C-8.5829243 10.16711528 -9.02528106 8.64466694 -8.875 4.8125 C-7.4425148 0.20808329 -4.50851088 -0.7889894 0 0 Z " fill="#000000" transform="translate(101,65)"/>
<path d="M0 0 C2.64 0 5.28 0 8 0 C8 0.99 8 1.98 8 3 C6.35 3 4.7 3 3 3 C3 3.66 3 4.32 3 5 C4.65 5 6.3 5 8 5 C8 5.99 8 6.98 8 8 C6.35 8 4.7 8 3 8 C3 8.66 3 9.32 3 10 C4.98 10 6.96 10 9 10 C9 10.99 9 11.98 9 13 C6.03 13 3.06 13 0 13 C0 8.71 0 4.42 0 0 Z " fill="#000000" transform="translate(288,65)"/>
<path d="M0 0 C0.99 0 1.98 0 3 0 C3.33 2.97 3.66 5.94 4 9 C4.99 9.33 5.98 9.66 7 10 C7 6.7 7 3.4 7 0 C7.99 0 8.98 0 10 0 C10.05391993 1.79133978 10.09275571 3.58313899 10.125 5.375 C10.14820313 6.37273437 10.17140625 7.37046875 10.1953125 8.3984375 C10 11 10 11 8 13 C5 13.25 5 13.25 2 13 C0 11 0 11 -0.1953125 8.3984375 C-0.17210937 7.40070313 -0.14890625 6.40296875 -0.125 5.375 C-0.10695313 4.37210937 -0.08890625 3.36921875 -0.0703125 2.3359375 C-0.04710937 1.56507812 -0.02390625 0.79421875 0 0 Z " fill="#000000" transform="translate(260,65)"/>
<path d="M0 0 C0.99 0 1.98 0 3 0 C3 3.3 3 6.6 3 10 C3.99 9.67 4.98 9.34 6 9 C6.33 6.03 6.66 3.06 7 0 C7.99 0 8.98 0 10 0 C10.05391993 1.79133978 10.09275571 3.58313899 10.125 5.375 C10.14820313 6.37273437 10.17140625 7.37046875 10.1953125 8.3984375 C10 11 10 11 8 13 C5 13.25 5 13.25 2 13 C0 11 0 11 -0.1953125 8.3984375 C-0.17210937 7.40070313 -0.14890625 6.40296875 -0.125 5.375 C-0.10695312 4.37210937 -0.08890625 3.36921875 -0.0703125 2.3359375 C-0.04710937 1.56507812 -0.02390625 0.79421875 0 0 Z " fill="#000000" transform="translate(129,65)"/>
<path d="M0 0 C2.64 0 5.28 0 8 0 C8 0.99 8 1.98 8 3 C6.35 3 4.7 3 3 3 C3 3.66 3 4.32 3 5 C4.65 5 6.3 5 8 5 C8 5.99 8 6.98 8 8 C6.35 8 4.7 8 3 8 C3 8.66 3 9.32 3 10 C4.65 10 6.3 10 8 10 C8 10.99 8 11.98 8 13 C5.36 13 2.72 13 0 13 C0 8.71 0 4.42 0 0 Z " fill="#000000" transform="translate(172,65)"/>
<path d="M0 0 C1.890625 0.26171875 1.890625 0.26171875 4 1 C5.046875 2.70703125 5.046875 2.70703125 5.75 4.8125 C5.99234375 5.49957031 6.2346875 6.18664062 6.484375 6.89453125 C7 9 7 9 7 13 C6.01 13 5.02 13 4 13 C4 12.01 4 11.02 4 10 C2.68 10 1.36 10 0 10 C-0.33 10.99 -0.66 11.98 -1 13 C-1.99 13 -2.98 13 -4 13 C-3.52140759 11.39566191 -3.04210442 9.79153584 -2.5625 8.1875 C-2.29566406 7.29417969 -2.02882812 6.40085937 -1.75390625 5.48046875 C-1.19612127 3.64526945 -0.60655425 1.81966274 0 0 Z " fill="#000000" transform="translate(223,65)"/>
<path d="M0 0 C2.97 0 5.94 0 9 0 C9 0.99 9 1.98 9 3 C8.01 3 7.02 3 6 3 C6 6.3 6 9.6 6 13 C5.01 13 4.02 13 3 13 C3 9.7 3 6.4 3 3 C2.01 3 1.02 3 0 3 C0 2.01 0 1.02 0 0 Z " fill="#000000" transform="translate(199,65)"/>
<path d="M0 0 C0.99 0 1.98 0 3 0 C3 4.29 3 8.58 3 13 C2.01 13 1.02 13 0 13 C0 8.71 0 4.42 0 0 Z " fill="#000000" transform="translate(85,65)"/>
</svg>
